{"title":"Pain and Gain 2013 BRRip XViD AC3 juggs","uid":8802922,"size":1479928632,"categoryP":"video","categoryS":"movies","magnet":"?xt=urn:btih:bed63248ebe322ad100662336657709d7552e8e1&amp;dn=Pain+and+Gain+2013+BRRip+XViD+AC3+juggs&amp;tr=udp%3A%2F%2Ftracker.openbittorrent.com%3A80&amp;tr=udp%3A%2F%2Fopen.demonii.com%3A1337&amp;tr=udp%3A%2F%2Ftracker.coppersurfer.tk%3A6969&amp;tr=udp%3A%2F%2Fexodus.desync.com%3A6969","seeders":4,"leechers":1,"uploader":"xxxlavalxxx","files":-1,"time":1376254162,"description":" &lt;a href=&quot;http://www.imdb.com/title/tt1980209/&quot; rel=&quot;nofollow&quot; target=&quot;_NEW&quot;&gt;http://www.imdb.com/title/tt1980209/&lt;/a&gt;\n\n\nA trio of bodybuilders in Florida get caught up in an extortion ring and a kidnapping scheme that goes terribly wrong. \n\n\n\nDirector:\n Michael Bay \n\nWriters:\n Christopher Markus (screenplay), Stephen McFeely (screenplay)\n\nStars:\n Mark Wahlberg, Dwayne Johnson, Anthony Mackie \n\nGenres:\n  Action |  Comedy |  Crime |  Drama |  Thriller \n\nCountry:\n USA \n\nLanguage:\n English \n\n\n\nSource : AMIABLE(Thanks)\n\n &lt;a href=&quot; http://www.imdb.com/title/tt1980209/&quot; rel=&quot;nofollow&quot; target=&quot;_NEW&quot;&gt; http://www.imdb.com/title/tt1980209/&lt;/a&gt;\n\n Format : AVI\n Format/Info : Audio Video Interleave\n File size : 1.36 GiB\n Duration : 2h 9mn\n Overall bit rate : 1 505 Kbps\n Writing library : VirtualDub build 32842/release\n\n Video\n ID : 0\n Format : MPEG-4 Visual\n Format profile : Advanced Simple@L5\n Format settings, BVOP : 2\n Format settings, QPel : No\n Format settings, GMC : No warppoints\n Format settings, Matrix : Default (H.263)\n Muxing mode : Packed bitstream\n Codec ID : XVID\n Codec ID/Hint : XviD\n Duration : 2h 9mn\n Bit rate : 1 240 Kbps\n Width : 720 pixels\n Height : 304 pixels\n Display aspect ratio : 2.35:1\n Frame rate : 23.976 fps\n Color space : YUV\n Chroma subsampling : 4:2:0\n Bit depth : 8 bits\n Scan type : Progressive\n Compression mode : Lossy\n Bits/(Pixel*Frame) : 0.236\n Stream size : 1.12 GiB (82%)\n Writing library : XviD 64\n\n Audio\n ID : 1\n Format : AC-3\n Format/Info : Audio Coding 3\n Mode extension : CM (complete main)\n Format settings, Endianness : Big\n Codec ID : 2000\n Duration : 2h 9mn\n Bit rate mode : Constant\n Bit rate : 256 Kbps\n Channel(s) : 2 channels\n Channel positions : Front: L R\n Sampling rate : 48.0 KHz\n Bit depth : 16 bits\n Compression mode : Lossy\n Stream size : 237 MiB (17%)\n Alignment : Aligned on interleaves\n Interleave, duration : 42 ms (1.00 video frame)\n Interleave, preload duration : 512 ms\n\n\n &lt;a href=&quot;\nhttp://bayimg.com/daohDAAEe&quot; rel=&quot;nofollow&quot; target=&quot;_NEW&quot;&gt;\nhttp://bayimg.com/daohDAAEe&lt;/a&gt; &lt;a href=&quot;\nhttp://bayimg.com/DAoHfaAee&quot; rel=&quot;nofollow&quot; target=&quot;_NEW&quot;&gt;\nhttp://bayimg.com/DAoHfaAee&lt;/a&gt;\n","torrent":{"xt":"urn:btih:bed63248ebe322ad100662336657709d7552e8e1","amp;dn":"Pain+and+Gain+2013+BRRip+XViD+AC3+juggs","amp;tr":["udp%3A%2F%2Ftracker.openbittorrent.com%3A80","udp%3A%2F%2Fopen.demonii.com%3A1337","udp%3A%2F%2Ftracker.coppersurfer.tk%3A6969","udp%3A%2F%2Fexodus.desync.com%3A6969"],"infoHash":"bed63248ebe322ad100662336657709d7552e8e1","infoHashBuffer":{"type":"Buffer","data":[190,214,50,72,235,227,34,173,16,6,98,51,102,87,112,157,117,82,232,225]},"announce":[],"urlList":[]}}